# xmcd CD database file
#
# Track frame offsets:
#	150
#	22170
#	39066
#	63997
#	84331
#	102659
#	123018
#	148871
#	170995
#	192862
#
# Disc length: 2787 seconds
#
# Revision: 0
# Processed by: cddbd v1.5.2PL0 Copyright (c) Steve Scherf et al.
# Submitted via: CDex 1.70beta2
#
DISCID=870ae10a
DTITLE=LTC - A Different View
DYEAR=2008
DGENRE=Jazz
TTITLE0=Just Give Me Time
TTITLE1=A Different View
TTITLE2=The Holy Ghost
TTITLE3=Magic Mirror
TTITLE4=Meninos Das Laranjas
TTITLE5=Easy Does It
TTITLE6=Antony And Cleopatra's Love
TTITLE7=Shibuya Crossing
TTITLE8=Breakfast With Silvia
TTITLE9=I Wish I Knew How It Would Feel To Be Free
EXTD=YEAR: 2008
EXTT0=
EXTT1=
EXTT2=
EXTT3=
EXTT4=
EXTT5=
EXTT6=
EXTT7=
EXTT8=
EXTT9=
PLAYORDER=
